<?xml version="1.0" encoding="UTF-8" standalone="no"?>
<!-- Created with Inkscape (http://www.inkscape.org/) -->

<svg
   xmlns:dc="http://purl.org/dc/elements/1.1/"
   xmlns:cc="http://creativecommons.org/ns#"
   xmlns:rdf="http://www.w3.org/1999/02/22-rdf-syntax-ns#"
   xmlns:svg="http://www.w3.org/2000/svg"
   xmlns="http://www.w3.org/2000/svg"
   xmlns:sodipodi="http://sodipodi.sourceforge.net/DTD/sodipodi-0.dtd"
   xmlns:inkscape="http://www.inkscape.org/namespaces/inkscape"
   width="160mm"
   height="90mm"
   viewBox="0 0 160 90"
   version="1.1"
   id="svg3719"
   sodipodi:docname="logo.svg"
   inkscape:version="0.92.2 (5c3e80d, 2017-08-06)">
  <defs
     id="defs3713">
    <path
       d="M0 1173h2000V0H0v1173z"
       id="a" />
  </defs>
  <sodipodi:namedview
     id="base"
     pagecolor="#ffffff"
     bordercolor="#666666"
     borderopacity="1.0"
     inkscape:pageopacity="0.0"
     inkscape:pageshadow="2"
     inkscape:zoom="1.4"
     inkscape:cx="444.91022"
     inkscape:cy="154.61546"
     inkscape:document-units="mm"
     inkscape:current-layer="layer1"
     showgrid="true"
     inkscape:window-width="2560"
     inkscape:window-height="1008"
     inkscape:window-x="0"
     inkscape:window-y="38"
     inkscape:window-maximized="1"
     showguides="true"
     inkscape:snap-perpendicular="true"
     inkscape:snap-tangential="true"
     guidetolerance="10000"
     gridtolerance="10000"
     objecttolerance="10000">
    <inkscape:grid
       type="xygrid"
       id="grid4212" />
  </sodipodi:namedview>
  <metadata
     id="metadata3716">
    <rdf:RDF>
      <cc:Work
         rdf:about="">
        <dc:format>image/svg+xml</dc:format>
        <dc:type
           rdf:resource="http://purl.org/dc/dcmitype/StillImage" />
        <dc:title></dc:title>
      </cc:Work>
    </rdf:RDF>
  </metadata>
  <g
     inkscape:label="Layer 1"
     inkscape:groupmode="layer"
     id="layer1"
     transform="translate(0,-207)">
    <path
       style="fill:#000000;stroke-width:2.59156799"
       d="M 34.189453,0 C 15.248352,0 0,15.248352 0,34.189453 V 305.9668 c 0,18.9411 15.248352,34.1914 34.189453,34.1914 H 570.53516 c 18.9411,0 34.18945,-15.2503 34.18945,-34.1914 V 34.189453 C 604.72461,15.248352 589.47626,0 570.53516,0 Z M 47.160156,22.677734 H 557.56445 c 13.56336,0 24.48242,10.919062 24.48243,24.482422 V 292.99805 c 0,13.56336 -10.91907,24.48242 -24.48243,24.48242 H 47.160156 c -13.56336,0 -24.482422,-10.91906 -24.482422,-24.48242 V 47.160156 c 0,-13.56336 10.919062,-24.482422 24.482422,-24.482422 z"
       id="rect3721"
       transform="matrix(0.26458333,0,0,0.26458333,0,207)"
       inkscape:connector-curvature="0" />
    <rect
       style="fill:#1565c0;fill-opacity:1;stroke-width:0.28898776"
       id="rect4214"
       width="44.979168"
       height="21.166664"
       x="10.054167"
       y="217.625"
       rx="4.4234805" />
    <rect
       style="fill:#ef6c00;fill-opacity:1;stroke-width:0.28035927"
       id="rect4214-2"
       width="42.333336"
       height="21.166672"
       x="57.679165"
       y="217.625"
       rx="4.1632762" />
    <rect
       style="fill:#2e7d32;fill-opacity:1;stroke-width:0.30000928"
       id="rect4214-2-8"
       width="47.625"
       height="21.544655"
       x="102.65834"
       y="217.24701"
       rx="4.6836858" />
    <rect
       style="fill:#c62828;fill-opacity:1;stroke-width:0.25271246"
       id="rect4214-9"
       width="34.395836"
       height="21.166664"
       x="10.054167"
       y="241.4375"
       rx="3.3826616" />
    <rect
       style="fill:#010101;fill-opacity:1;stroke-width:0.35356432"
       id="rect4214-7"
       width="66.145828"
       height="21.544655"
       x="47.095833"
       y="241.05951"
       rx="6.5051174" />
    <rect
       style="fill:#c62828;fill-opacity:1;stroke-width:0.25495884"
       id="rect4214-2-8-3"
       width="34.395821"
       height="21.544655"
       x="115.8875"
       y="241.05951"
       rx="3.3826611" />
    <rect
       style="fill:#2e7d32;fill-opacity:1;stroke-width:0.35044912"
       id="rect4214-7-6"
       width="66.145828"
       height="21.166664"
       x="10.054167"
       y="265.25"
       rx="6.5051174" />
    <rect
       style="fill:#2e7d32;fill-opacity:1;stroke-width:0.36419743"
       id="rect4214-7-6-1"
       width="71.437492"
       height="21.166664"
       x="78.845833"
       y="265.25"
       rx="7.0255265" />
    <path
       transform="matrix(0.11908309,0,0,-0.11908309,5.7550632,320.45604)"
       style="opacity:0.98999999;fill:#e24329;fill-rule:evenodd;stroke:#ffffff;stroke-width:58.7824854;stroke-miterlimit:4;stroke-dasharray:none;stroke-opacity:1;paint-order:markers fill stroke"
       d="m 456.87851,813.75281 c -3.9486,0 -7.89374,-2.36982 -9.47318,-7.10814 L 389.48999,629.74818 361.06175,540.24543 c -3.15888,-8.42367 5.8e-4,-16.84942 6.31835,-22.11424 L 619.03798,335.97085 869.64133,518.13119 c 7.37075,5.26482 10.53176,13.69057 7.37286,22.11424 l -28.43257,89.50275 -57.91101,176.89649 c -3.15885,9.47665 -15.79613,9.47665 -18.95505,0 L 714.85474,629.74818 H 523.21686 l -56.86081,176.89649 c -1.57944,4.73832 -5.52893,7.10814 -9.47754,7.10814 z"
       id="path4110-2"
       inkscape:connector-curvature="0" />
  </g>
  <g
     inkscape:groupmode="layer"
     id="layer2"
     inkscape:label="Layer 2">
    <g
       id="g4124"
       transform="matrix(0.11908309,0,0,-0.11908309,-0.85414213,113.12021)"
       style="opacity:0.98999999;fill:none;fill-rule:evenodd;stroke:none;stroke-width:18.63404846;stroke-miterlimit:4;stroke-dasharray:none;stroke-opacity:1;paint-order:markers fill stroke">
      <g
         id="g4150"
         transform="translate(55.500788,-2.8201421)"
         style="stroke:none;stroke-width:18.63404846;stroke-miterlimit:4;stroke-dasharray:none;stroke-opacity:1;paint-order:markers fill stroke">
        <path
           style="fill:#fc6d26;stroke:none;stroke-width:18.63404846;stroke-miterlimit:4;stroke-dasharray:none;stroke-opacity:1;paint-order:markers fill stroke"
           inkscape:connector-curvature="0"
           d="m 877.01323,540.24337 -28.42994,89.50169 -57.91286,176.89745 c -3.15888,9.47665 -15.79442,9.47665 -18.9533,0 L 714.85724,629.74506 H 523.21833 l -56.8599,176.89745 c -3.15888,9.47665 -15.79441,9.47665 -18.9533,0 L 389.49228,629.74506 361.06233,540.24337 c -3.15888,-8.42369 0,-16.84737 6.31777,-22.11218 L 619.03778,335.96893 869.64251,518.13119 c 7.37072,5.26481 10.52961,13.68849 7.37072,22.11218"
           id="path4108" />
        <path
           style="fill:#e24329;stroke:none;stroke-width:18.63404846;stroke-miterlimit:4;stroke-dasharray:none;stroke-opacity:1;paint-order:markers fill stroke"
           inkscape:connector-curvature="0"
           d="m 619.03778,335.96893 95.81946,293.77613 H 523.21833 Z"
           id="path4110" />
        <path
           style="fill:#fc6d26;stroke:none;stroke-width:18.63404846;stroke-miterlimit:4;stroke-dasharray:none;stroke-opacity:1;paint-order:markers fill stroke"
           inkscape:connector-curvature="0"
           d="M 619.03778,335.96893 523.21833,629.74506 H 389.49228 Z"
           id="path4112" />
        <path
           style="fill:#fca326;stroke:none;stroke-width:18.63404846;stroke-miterlimit:4;stroke-dasharray:none;stroke-opacity:1;paint-order:markers fill stroke"
           inkscape:connector-curvature="0"
           d="m 389.49228,629.74506 -28.42995,-89.50169 c -3.15888,-8.42369 0,-16.84737 6.31777,-22.11218 L 619.03778,335.96893 Z"
           id="path4114" />
        <path
           style="fill:#e24329;stroke:none;stroke-width:18.63404846;stroke-miterlimit:4;stroke-dasharray:none;stroke-opacity:1;paint-order:markers fill stroke"
           inkscape:connector-curvature="0"
           d="m 389.49228,629.74506 h 133.72605 l -56.8599,176.89745 c -3.15888,9.47665 -15.79441,9.47665 -18.9533,0 z"
           id="path4116" />
        <path
           style="fill:#fc6d26;stroke:none;stroke-width:18.63404846;stroke-miterlimit:4;stroke-dasharray:none;stroke-opacity:1;paint-order:markers fill stroke"
           inkscape:connector-curvature="0"
           d="m 619.03778,335.96893 95.81946,293.77613 h 133.72605 z"
           id="path4118" />
        <path
           style="fill:#fca326;stroke:none;stroke-width:18.63404846;stroke-miterlimit:4;stroke-dasharray:none;stroke-opacity:1;paint-order:markers fill stroke"
           inkscape:connector-curvature="0"
           d="m 848.58329,629.74506 28.42994,-89.50169 c 3.15889,-8.42369 0,-16.84737 -7.37072,-22.11218 L 619.03778,335.96893 Z"
           id="path4120" />
        <path
           style="fill:#e24329;stroke:none;stroke-width:18.63404846;stroke-miterlimit:4;stroke-dasharray:none;stroke-opacity:1;paint-order:markers fill stroke"
           inkscape:connector-curvature="0"
           d="M 848.58329,629.74506 H 714.85724 l 56.85989,176.89745 c 3.15888,9.47665 15.79442,9.47665 18.9533,0 z"
           id="path4122" />
      </g>
    </g>
  </g>
</svg>
